<mxfile host="app.diagrams.net" agent="Mozilla/5.0 (Windows NT 10.0; Win64; x64) AppleWebKit/537.36 (KHTML, like Gecko) Chrome/131.0.0.0 Safari/537.36 Edg/131.0.0.0" version="26.0.5">
  <diagram name="第 1 页" id="4UG25Fp_B6W0l5dKrZMW">
    <mxGraphModel dx="2331" dy="1027" grid="0" gridSize="10" guides="1" tooltips="1" connect="1" arrows="1" fold="1" page="0" pageScale="1" pageWidth="827" pageHeight="1169" math="0" shadow="0">
      <root>
        <mxCell id="0" />
        <mxCell id="1" parent="0" />
        <mxCell id="oYlRctocb77fKKuBrY3P-28" value="" style="ellipse;whiteSpace=wrap;html=1;aspect=fixed;labelBackgroundColor=#000000;labelBorderColor=default;" parent="1" vertex="1">
          <mxGeometry as="geometry" />
        </mxCell>
        <mxCell id="oYlRctocb77fKKuBrY3P-1" value="&lt;font style=&quot;font-size: 50px;&quot;&gt;A1&lt;/font&gt;" style="triangle;whiteSpace=wrap;html=1;strokeWidth=6;" parent="1" vertex="1">
          <mxGeometry x="295" y="240" width="120" height="160" as="geometry" />
        </mxCell>
        <mxCell id="oYlRctocb77fKKuBrY3P-2" value="" style="endArrow=none;html=1;rounded=0;exitX=0;exitY=0.25;exitDx=0;exitDy=0;strokeWidth=4;" parent="1" source="oYlRctocb77fKKuBrY3P-1" edge="1">
          <mxGeometry width="50" height="50" relative="1" as="geometry">
            <mxPoint x="335" y="360" as="sourcePoint" />
            <mxPoint x="95" y="280" as="targetPoint" />
          </mxGeometry>
        </mxCell>
        <mxCell id="oYlRctocb77fKKuBrY3P-3" value="" style="endArrow=none;html=1;rounded=0;exitX=0;exitY=0.75;exitDx=0;exitDy=0;strokeWidth=4;" parent="1" source="oYlRctocb77fKKuBrY3P-1" edge="1">
          <mxGeometry width="50" height="50" relative="1" as="geometry">
            <mxPoint x="315" y="360" as="sourcePoint" />
            <mxPoint x="95" y="360" as="targetPoint" />
          </mxGeometry>
        </mxCell>
        <mxCell id="oYlRctocb77fKKuBrY3P-4" value="" style="endArrow=none;html=1;rounded=0;entryX=1;entryY=0.5;entryDx=0;entryDy=0;strokeWidth=4;" parent="1" target="oYlRctocb77fKKuBrY3P-1" edge="1">
          <mxGeometry width="50" height="50" relative="1" as="geometry">
            <mxPoint x="475" y="320" as="sourcePoint" />
            <mxPoint x="275" y="380" as="targetPoint" />
          </mxGeometry>
        </mxCell>
        <mxCell id="oYlRctocb77fKKuBrY3P-5" value="&lt;font style=&quot;font-size: 50px;&quot;&gt;+&lt;/font&gt;" style="text;html=1;align=center;verticalAlign=middle;resizable=0;points=[];autosize=1;strokeColor=none;fillColor=none;strokeWidth=4;" parent="1" vertex="1">
          <mxGeometry x="245" y="225" width="50" height="70" as="geometry" />
        </mxCell>
        <mxCell id="oYlRctocb77fKKuBrY3P-6" value="&lt;font style=&quot;font-size: 50px;&quot;&gt;-&lt;/font&gt;" style="text;html=1;align=center;verticalAlign=middle;resizable=0;points=[];autosize=1;strokeColor=none;fillColor=none;strokeWidth=4;" parent="1" vertex="1">
          <mxGeometry x="250" y="345" width="40" height="70" as="geometry" />
        </mxCell>
        <mxCell id="oYlRctocb77fKKuBrY3P-13" value="&lt;font style=&quot;font-size: 50px;&quot;&gt;A2&lt;/font&gt;" style="triangle;whiteSpace=wrap;html=1;strokeWidth=6;" parent="1" vertex="1">
          <mxGeometry x="295" y="560" width="120" height="160" as="geometry" />
        </mxCell>
        <mxCell id="oYlRctocb77fKKuBrY3P-14" value="" style="endArrow=none;html=1;rounded=0;exitX=0;exitY=0.25;exitDx=0;exitDy=0;strokeWidth=4;" parent="1" source="oYlRctocb77fKKuBrY3P-13" edge="1">
          <mxGeometry width="50" height="50" relative="1" as="geometry">
            <mxPoint x="335" y="680" as="sourcePoint" />
            <mxPoint x="195" y="600" as="targetPoint" />
          </mxGeometry>
        </mxCell>
        <mxCell id="oYlRctocb77fKKuBrY3P-15" value="" style="endArrow=none;html=1;rounded=0;exitX=0;exitY=0.75;exitDx=0;exitDy=0;strokeWidth=4;" parent="1" source="oYlRctocb77fKKuBrY3P-13" edge="1">
          <mxGeometry width="50" height="50" relative="1" as="geometry">
            <mxPoint x="315" y="680" as="sourcePoint" />
            <mxPoint x="95" y="680" as="targetPoint" />
          </mxGeometry>
        </mxCell>
        <mxCell id="oYlRctocb77fKKuBrY3P-16" value="" style="endArrow=none;html=1;rounded=0;entryX=1;entryY=0.5;entryDx=0;entryDy=0;strokeWidth=4;" parent="1" target="oYlRctocb77fKKuBrY3P-13" edge="1">
          <mxGeometry width="50" height="50" relative="1" as="geometry">
            <mxPoint x="475" y="640" as="sourcePoint" />
            <mxPoint x="275" y="700" as="targetPoint" />
          </mxGeometry>
        </mxCell>
        <mxCell id="oYlRctocb77fKKuBrY3P-19" value="" style="rounded=0;whiteSpace=wrap;html=1;direction=south;strokeWidth=6;" parent="1" vertex="1">
          <mxGeometry x="175" y="160" width="40" height="80" as="geometry" />
        </mxCell>
        <mxCell id="oYlRctocb77fKKuBrY3P-20" value="" style="rounded=0;whiteSpace=wrap;html=1;direction=south;fontStyle=1;strokeWidth=6;" parent="1" vertex="1">
          <mxGeometry x="175" y="440" width="40" height="80" as="geometry" />
        </mxCell>
        <mxCell id="oYlRctocb77fKKuBrY3P-21" value="" style="rounded=0;whiteSpace=wrap;html=1;direction=south;strokeWidth=6;" parent="1" vertex="1">
          <mxGeometry x="175" y="720" width="40" height="80" as="geometry" />
        </mxCell>
        <mxCell id="oYlRctocb77fKKuBrY3P-26" value="" style="endArrow=none;html=1;rounded=0;entryX=1;entryY=0.5;entryDx=0;entryDy=0;exitX=0;exitY=0.5;exitDx=0;exitDy=0;strokeWidth=4;" parent="1" source="oYlRctocb77fKKuBrY3P-20" target="oYlRctocb77fKKuBrY3P-19" edge="1">
          <mxGeometry width="50" height="50" relative="1" as="geometry">
            <mxPoint x="355" y="380" as="sourcePoint" />
            <mxPoint x="455" y="280" as="targetPoint" />
          </mxGeometry>
        </mxCell>
        <mxCell id="oYlRctocb77fKKuBrY3P-27" value="" style="endArrow=none;html=1;rounded=0;entryX=1;entryY=0.5;entryDx=0;entryDy=0;exitX=0;exitY=0.5;exitDx=0;exitDy=0;strokeWidth=4;" parent="1" source="oYlRctocb77fKKuBrY3P-21" target="oYlRctocb77fKKuBrY3P-20" edge="1">
          <mxGeometry width="50" height="50" relative="1" as="geometry">
            <mxPoint x="215" y="460" as="sourcePoint" />
            <mxPoint x="215" y="260" as="targetPoint" />
          </mxGeometry>
        </mxCell>
        <mxCell id="oYlRctocb77fKKuBrY3P-35" value="" style="ellipse;whiteSpace=wrap;html=1;aspect=fixed;fillColor=#000000;strokeWidth=4;" parent="1" vertex="1">
          <mxGeometry x="185" y="350" width="20" height="20" as="geometry" />
        </mxCell>
        <mxCell id="oYlRctocb77fKKuBrY3P-44" value="" style="ellipse;whiteSpace=wrap;html=1;aspect=fixed;fillColor=#000000;strokeWidth=4;" parent="1" vertex="1">
          <mxGeometry x="185" y="590" width="20" height="20" as="geometry" />
        </mxCell>
        <mxCell id="oYlRctocb77fKKuBrY3P-49" value="&lt;font style=&quot;font-size: 50px;&quot;&gt;触&lt;br&gt;发&lt;br&gt;器&lt;/font&gt;" style="rounded=0;whiteSpace=wrap;html=1;direction=south;strokeWidth=6;" parent="1" vertex="1">
          <mxGeometry x="475" y="235" width="120" height="485" as="geometry" />
        </mxCell>
        <mxCell id="oYlRctocb77fKKuBrY3P-50" value="&lt;font style=&quot;font-size: 50px;&quot;&gt;+&lt;/font&gt;" style="text;html=1;align=center;verticalAlign=middle;resizable=0;points=[];autosize=1;strokeColor=none;fillColor=none;strokeWidth=4;" parent="1" vertex="1">
          <mxGeometry x="245" y="540" width="50" height="70" as="geometry" />
        </mxCell>
        <mxCell id="oYlRctocb77fKKuBrY3P-51" value="&lt;font style=&quot;font-size: 50px;&quot;&gt;-&lt;/font&gt;" style="text;html=1;align=center;verticalAlign=middle;resizable=0;points=[];autosize=1;strokeColor=none;fillColor=none;strokeWidth=4;" parent="1" vertex="1">
          <mxGeometry x="250" y="660" width="40" height="70" as="geometry" />
        </mxCell>
        <mxCell id="oYlRctocb77fKKuBrY3P-52" value="" style="endArrow=none;html=1;rounded=0;entryX=0;entryY=0.5;entryDx=0;entryDy=0;strokeWidth=4;" parent="1" target="oYlRctocb77fKKuBrY3P-49" edge="1">
          <mxGeometry width="50" height="50" relative="1" as="geometry">
            <mxPoint x="535" y="80" as="sourcePoint" />
            <mxPoint x="415" y="380" as="targetPoint" />
          </mxGeometry>
        </mxCell>
        <mxCell id="oYlRctocb77fKKuBrY3P-53" value="" style="endArrow=none;html=1;rounded=0;entryX=0;entryY=0.5;entryDx=0;entryDy=0;strokeWidth=4;" parent="1" target="oYlRctocb77fKKuBrY3P-19" edge="1">
          <mxGeometry width="50" height="50" relative="1" as="geometry">
            <mxPoint x="195" y="80" as="sourcePoint" />
            <mxPoint x="415" y="380" as="targetPoint" />
          </mxGeometry>
        </mxCell>
        <mxCell id="oYlRctocb77fKKuBrY3P-54" value="" style="endArrow=none;html=1;rounded=0;entryX=0.173;entryY=0.018;entryDx=0;entryDy=0;entryPerimeter=0;strokeWidth=4;" parent="1" target="oYlRctocb77fKKuBrY3P-49" edge="1">
          <mxGeometry width="50" height="50" relative="1" as="geometry">
            <mxPoint x="675" y="319" as="sourcePoint" />
            <mxPoint x="555" y="380" as="targetPoint" />
          </mxGeometry>
        </mxCell>
        <mxCell id="oYlRctocb77fKKuBrY3P-55" value="" style="endArrow=none;html=1;rounded=0;entryX=0.837;entryY=0;entryDx=0;entryDy=0;entryPerimeter=0;strokeWidth=4;" parent="1" target="oYlRctocb77fKKuBrY3P-49" edge="1">
          <mxGeometry width="50" height="50" relative="1" as="geometry">
            <mxPoint x="680" y="641" as="sourcePoint" />
            <mxPoint x="605.0000000000001" y="635.0649999999999" as="targetPoint" />
          </mxGeometry>
        </mxCell>
        <mxCell id="oYlRctocb77fKKuBrY3P-56" value="" style="endArrow=none;html=1;rounded=0;strokeWidth=4;" parent="1" edge="1">
          <mxGeometry width="50" height="50" relative="1" as="geometry">
            <mxPoint x="680" y="940" as="sourcePoint" />
            <mxPoint x="680" y="640" as="targetPoint" />
          </mxGeometry>
        </mxCell>
        <mxCell id="oYlRctocb77fKKuBrY3P-57" value="" style="endArrow=none;html=1;rounded=0;strokeWidth=4;entryX=1;entryY=0.5;entryDx=0;entryDy=0;" parent="1" target="eyqNCUY_SEGoPxI6-TQl-1" edge="1">
          <mxGeometry width="50" height="50" relative="1" as="geometry">
            <mxPoint x="395" y="941" as="sourcePoint" />
            <mxPoint x="480" y="941" as="targetPoint" />
          </mxGeometry>
        </mxCell>
        <mxCell id="oYlRctocb77fKKuBrY3P-58" value="" style="endArrow=none;html=1;rounded=0;strokeWidth=6;" parent="1" edge="1">
          <mxGeometry width="50" height="50" relative="1" as="geometry">
            <mxPoint x="395" y="981" as="sourcePoint" />
            <mxPoint x="395" y="901" as="targetPoint" />
          </mxGeometry>
        </mxCell>
        <mxCell id="oYlRctocb77fKKuBrY3P-59" value="" style="endArrow=none;html=1;rounded=0;strokeWidth=4;" parent="1" edge="1">
          <mxGeometry width="50" height="50" relative="1" as="geometry">
            <mxPoint x="395" y="921" as="sourcePoint" />
            <mxPoint x="355" y="901" as="targetPoint" />
          </mxGeometry>
        </mxCell>
        <mxCell id="oYlRctocb77fKKuBrY3P-61" value="" style="endArrow=classic;html=1;rounded=0;strokeWidth=4;" parent="1" edge="1">
          <mxGeometry width="50" height="50" relative="1" as="geometry">
            <mxPoint x="395" y="961" as="sourcePoint" />
            <mxPoint x="355" y="981" as="targetPoint" />
          </mxGeometry>
        </mxCell>
        <mxCell id="oYlRctocb77fKKuBrY3P-62" value="" style="endArrow=none;html=1;rounded=0;strokeWidth=4;" parent="1" edge="1">
          <mxGeometry width="50" height="50" relative="1" as="geometry">
            <mxPoint x="355" y="901" as="sourcePoint" />
            <mxPoint x="355" y="881" as="targetPoint" />
          </mxGeometry>
        </mxCell>
        <mxCell id="oYlRctocb77fKKuBrY3P-63" value="" style="endArrow=none;html=1;rounded=0;strokeWidth=4;" parent="1" edge="1">
          <mxGeometry width="50" height="50" relative="1" as="geometry">
            <mxPoint x="355" y="981" as="sourcePoint" />
            <mxPoint x="355" y="1001" as="targetPoint" />
          </mxGeometry>
        </mxCell>
        <mxCell id="oYlRctocb77fKKuBrY3P-64" value="" style="endArrow=none;html=1;rounded=0;strokeWidth=4;" parent="1" edge="1">
          <mxGeometry width="50" height="50" relative="1" as="geometry">
            <mxPoint x="355" y="1001" as="sourcePoint" />
            <mxPoint x="115" y="1001" as="targetPoint" />
          </mxGeometry>
        </mxCell>
        <mxCell id="oYlRctocb77fKKuBrY3P-65" value="" style="endArrow=none;html=1;rounded=0;strokeWidth=4;" parent="1" edge="1">
          <mxGeometry width="50" height="50" relative="1" as="geometry">
            <mxPoint x="355" y="881" as="sourcePoint" />
            <mxPoint x="115" y="881" as="targetPoint" />
          </mxGeometry>
        </mxCell>
        <mxCell id="oYlRctocb77fKKuBrY3P-66" value="" style="endArrow=none;html=1;rounded=0;entryX=1;entryY=0.5;entryDx=0;entryDy=0;strokeWidth=4;" parent="1" source="oYlRctocb77fKKuBrY3P-43" target="oYlRctocb77fKKuBrY3P-21" edge="1">
          <mxGeometry width="50" height="50" relative="1" as="geometry">
            <mxPoint x="195" y="1020" as="sourcePoint" />
            <mxPoint x="375" y="810" as="targetPoint" />
          </mxGeometry>
        </mxCell>
        <mxCell id="oYlRctocb77fKKuBrY3P-68" value="" style="endArrow=none;html=1;rounded=0;entryX=1;entryY=0.5;entryDx=0;entryDy=0;strokeWidth=4;" parent="1" target="oYlRctocb77fKKuBrY3P-43" edge="1">
          <mxGeometry width="50" height="50" relative="1" as="geometry">
            <mxPoint x="195" y="1001" as="sourcePoint" />
            <mxPoint x="195" y="781" as="targetPoint" />
          </mxGeometry>
        </mxCell>
        <mxCell id="oYlRctocb77fKKuBrY3P-43" value="" style="ellipse;whiteSpace=wrap;html=1;aspect=fixed;fillColor=#000000;strokeWidth=4;" parent="1" vertex="1">
          <mxGeometry x="185" y="991" width="20" height="20" as="geometry" />
        </mxCell>
        <mxCell id="oYlRctocb77fKKuBrY3P-69" value="&lt;font style=&quot;font-size: 50px;&quot;&gt;6&lt;/font&gt;" style="text;html=1;align=center;verticalAlign=middle;resizable=0;points=[];autosize=1;strokeColor=default;fillColor=none;rounded=1;fontStyle=1;strokeWidth=4;dashed=1;opacity=50;shadow=1;glass=1;dashPattern=1 1;" parent="1" vertex="1">
          <mxGeometry x="40" y="220" width="50" height="70" as="geometry" />
        </mxCell>
        <mxCell id="oYlRctocb77fKKuBrY3P-70" value="&lt;font style=&quot;font-size: 50px;&quot;&gt;&lt;b&gt;5&lt;/b&gt;&lt;/font&gt;" style="text;html=1;align=center;verticalAlign=middle;resizable=0;points=[];autosize=1;strokeColor=default;fillColor=none;strokeWidth=4;dashed=1;opacity=50;rounded=1;shadow=1;glass=1;dashPattern=1 1;" parent="1" vertex="1">
          <mxGeometry x="40" y="325" width="50" height="70" as="geometry" />
        </mxCell>
        <mxCell id="oYlRctocb77fKKuBrY3P-71" value="&lt;font style=&quot;font-size: 50px;&quot;&gt;&lt;b&gt;2&lt;/b&gt;&lt;/font&gt;" style="text;html=1;align=center;verticalAlign=middle;resizable=0;points=[];autosize=1;strokeColor=default;fillColor=none;strokeWidth=4;dashed=1;opacity=50;rounded=1;shadow=1;glass=1;dashPattern=1 1;" parent="1" vertex="1">
          <mxGeometry x="50" y="640" width="50" height="70" as="geometry" />
        </mxCell>
        <mxCell id="oYlRctocb77fKKuBrY3P-72" value="&lt;font style=&quot;font-size: 50px;&quot;&gt;&lt;b&gt;7&lt;/b&gt;&lt;/font&gt;" style="text;html=1;align=center;verticalAlign=middle;resizable=0;points=[];autosize=1;strokeColor=default;fillColor=none;strokeWidth=4;dashed=1;opacity=50;rounded=1;shadow=1;glass=1;dashPattern=1 1;" parent="1" vertex="1">
          <mxGeometry x="50" y="840" width="50" height="70" as="geometry" />
        </mxCell>
        <mxCell id="oYlRctocb77fKKuBrY3P-73" value="&lt;font style=&quot;font-size: 50px;&quot;&gt;&lt;b&gt;1&lt;/b&gt;&lt;/font&gt;" style="text;html=1;align=center;verticalAlign=middle;resizable=0;points=[];autosize=1;strokeColor=default;fillColor=none;strokeWidth=4;dashed=1;opacity=50;rounded=1;shadow=1;glass=1;dashPattern=1 1;" parent="1" vertex="1">
          <mxGeometry x="50" y="961" width="50" height="70" as="geometry" />
        </mxCell>
        <mxCell id="oYlRctocb77fKKuBrY3P-74" value="&lt;font style=&quot;font-size: 50px;&quot;&gt;R&lt;sub&gt;t&lt;/sub&gt;&lt;/font&gt;" style="text;html=1;align=center;verticalAlign=middle;resizable=0;points=[];autosize=1;strokeColor=none;fillColor=none;strokeWidth=4;" parent="1" vertex="1">
          <mxGeometry x="103" y="150" width="66" height="81" as="geometry" />
        </mxCell>
        <mxCell id="oYlRctocb77fKKuBrY3P-75" value="&lt;font style=&quot;font-size: 50px;&quot;&gt;R&lt;sub&gt;t&lt;/sub&gt;&lt;/font&gt;" style="text;html=1;align=center;verticalAlign=middle;resizable=0;points=[];autosize=1;strokeColor=none;fillColor=none;strokeWidth=4;" parent="1" vertex="1">
          <mxGeometry x="98" y="445" width="66" height="81" as="geometry" />
        </mxCell>
        <mxCell id="oYlRctocb77fKKuBrY3P-76" value="&lt;font style=&quot;font-size: 50px;&quot;&gt;R&lt;sub&gt;t&lt;/sub&gt;&lt;/font&gt;" style="text;html=1;align=center;verticalAlign=middle;resizable=0;points=[];autosize=1;strokeColor=none;fillColor=none;strokeWidth=4;" parent="1" vertex="1">
          <mxGeometry x="98" y="725" width="66" height="81" as="geometry" />
        </mxCell>
        <mxCell id="oYlRctocb77fKKuBrY3P-77" value="&lt;font style=&quot;font-size: 50px;&quot;&gt;R&lt;/font&gt;" style="text;html=1;align=center;verticalAlign=middle;resizable=0;points=[];autosize=1;strokeColor=none;fillColor=none;strokeWidth=4;" parent="1" vertex="1">
          <mxGeometry x="405" y="238" width="60" height="70" as="geometry" />
        </mxCell>
        <mxCell id="oYlRctocb77fKKuBrY3P-78" value="&lt;span style=&quot;font-size: 50px;&quot;&gt;S&lt;/span&gt;" style="text;html=1;align=center;verticalAlign=middle;resizable=0;points=[];autosize=1;strokeColor=none;fillColor=none;strokeWidth=4;" parent="1" vertex="1">
          <mxGeometry x="405" y="565" width="60" height="70" as="geometry" />
        </mxCell>
        <mxCell id="oYlRctocb77fKKuBrY3P-79" value="&lt;span style=&quot;font-size: 50px;&quot;&gt;Q&lt;/span&gt;" style="text;html=1;align=center;verticalAlign=middle;resizable=0;points=[];autosize=1;strokeColor=none;fillColor=none;strokeWidth=4;" parent="1" vertex="1">
          <mxGeometry x="605" y="240" width="60" height="70" as="geometry" />
        </mxCell>
        <mxCell id="oYlRctocb77fKKuBrY3P-80" value="&lt;font style=&quot;font-size: 50px;&quot;&gt;Q&lt;/font&gt;" style="text;html=1;align=center;verticalAlign=middle;resizable=0;points=[];autosize=1;strokeColor=none;fillColor=none;strokeWidth=4;" parent="1" vertex="1">
          <mxGeometry x="605" y="565" width="60" height="70" as="geometry" />
        </mxCell>
        <mxCell id="oYlRctocb77fKKuBrY3P-81" value="" style="endArrow=none;html=1;rounded=0;strokeWidth=4;" parent="1" edge="1">
          <mxGeometry width="50" height="50" relative="1" as="geometry">
            <mxPoint x="655" y="570" as="sourcePoint" />
            <mxPoint x="615" y="570" as="targetPoint" />
          </mxGeometry>
        </mxCell>
        <mxCell id="oYlRctocb77fKKuBrY3P-82" value="&lt;span style=&quot;font-size: 50px;&quot;&gt;T&lt;/span&gt;" style="text;html=1;align=center;verticalAlign=middle;resizable=0;points=[];autosize=1;strokeColor=none;fillColor=none;strokeWidth=4;" parent="1" vertex="1">
          <mxGeometry x="410" y="881" width="50" height="70" as="geometry" />
        </mxCell>
        <mxCell id="oYlRctocb77fKKuBrY3P-83" value="&lt;font style=&quot;font-size: 50px;&quot;&gt;8&lt;/font&gt;" style="text;html=1;align=center;verticalAlign=middle;resizable=0;points=[];autosize=1;strokeColor=default;fillColor=none;rounded=1;fontStyle=1;strokeWidth=4;dashed=1;opacity=50;shadow=1;glass=1;dashPattern=1 1;" parent="1" vertex="1">
          <mxGeometry x="220" y="80" width="50" height="70" as="geometry" />
        </mxCell>
        <mxCell id="oYlRctocb77fKKuBrY3P-86" value="&lt;font style=&quot;font-size: 50px;&quot;&gt;4&lt;/font&gt;" style="text;html=1;align=center;verticalAlign=middle;resizable=0;points=[];autosize=1;strokeColor=default;fillColor=none;rounded=1;fontStyle=1;strokeWidth=4;dashed=1;opacity=50;shadow=1;glass=1;dashPattern=1 1;" parent="1" vertex="1">
          <mxGeometry x="555" y="80" width="50" height="70" as="geometry" />
        </mxCell>
        <mxCell id="oYlRctocb77fKKuBrY3P-87" value="&lt;font style=&quot;font-size: 50px;&quot;&gt;3&lt;/font&gt;" style="text;html=1;align=center;verticalAlign=middle;resizable=0;points=[];autosize=1;strokeColor=default;fillColor=none;rounded=1;fontStyle=1;strokeWidth=4;dashed=1;opacity=50;shadow=1;glass=1;dashPattern=1 1;" parent="1" vertex="1">
          <mxGeometry x="685" y="280" width="50" height="70" as="geometry" />
        </mxCell>
        <mxCell id="eyqNCUY_SEGoPxI6-TQl-1" value="" style="rounded=0;whiteSpace=wrap;html=1;direction=west;strokeWidth=6;" parent="1" vertex="1">
          <mxGeometry x="505" y="921" width="80" height="40" as="geometry" />
        </mxCell>
        <mxCell id="eyqNCUY_SEGoPxI6-TQl-2" value="" style="endArrow=none;html=1;rounded=0;strokeWidth=4;exitX=0;exitY=0.5;exitDx=0;exitDy=0;" parent="1" source="eyqNCUY_SEGoPxI6-TQl-1" edge="1">
          <mxGeometry width="50" height="50" relative="1" as="geometry">
            <mxPoint x="405" y="951" as="sourcePoint" />
            <mxPoint x="680" y="940" as="targetPoint" />
          </mxGeometry>
        </mxCell>
        <mxCell id="eyqNCUY_SEGoPxI6-TQl-3" value="&lt;span style=&quot;font-size: 50px;&quot;&gt;R&lt;/span&gt;&lt;span style=&quot;font-size: 41.6667px;&quot;&gt;&lt;sub&gt;p&lt;/sub&gt;&lt;/span&gt;" style="text;html=1;align=center;verticalAlign=middle;resizable=0;points=[];autosize=1;strokeColor=none;fillColor=none;strokeWidth=4;" parent="1" vertex="1">
          <mxGeometry x="509" y="837" width="73" height="77" as="geometry" />
        </mxCell>
        <mxCell id="8e0lwJXoleI-abOCfVbX-1" value="&lt;span style=&quot;font-size: 50px;&quot;&gt;5kΩ&lt;/span&gt;" style="text;html=1;align=center;verticalAlign=middle;resizable=0;points=[];autosize=1;strokeColor=none;fillColor=none;strokeWidth=4;" vertex="1" parent="1">
          <mxGeometry x="223" y="166" width="108" height="72" as="geometry" />
        </mxCell>
        <mxCell id="8e0lwJXoleI-abOCfVbX-2" value="&lt;span style=&quot;font-size: 50px;&quot;&gt;5kΩ&lt;/span&gt;" style="text;html=1;align=center;verticalAlign=middle;resizable=0;points=[];autosize=1;strokeColor=none;fillColor=none;strokeWidth=4;" vertex="1" parent="1">
          <mxGeometry x="227" y="448" width="108" height="72" as="geometry" />
        </mxCell>
        <mxCell id="8e0lwJXoleI-abOCfVbX-3" value="&lt;span style=&quot;font-size: 50px;&quot;&gt;5kΩ&lt;/span&gt;" style="text;html=1;align=center;verticalAlign=middle;resizable=0;points=[];autosize=1;strokeColor=none;fillColor=none;strokeWidth=4;" vertex="1" parent="1">
          <mxGeometry x="227" y="734" width="108" height="72" as="geometry" />
        </mxCell>
      </root>
    </mxGraphModel>
  </diagram>
</mxfile>
